<?xml version="1.0" ?><!-- Uploaded to: SVG Repo, www.svgrepo.com, Generator: SVG Repo Mixer Tools -->
<svg fill="#000000" width="800px" height="800px" viewBox="0 0 128 128" data-name="Layer 1" id="Layer_1" xmlns="http://www.w3.org/2000/svg"><title/><circle cx="49.031" cy="56.421" r="1.5"/><path d="M122,55.34a3.171,3.171,0,0,0-3.306.248l-20.98,15.05a.966.966,0,0,0-.108.121l-.3-.3,5.23-5.23a3.8,3.8,0,0,0,0-5.374l-17.4-17.39a3.789,3.789,0,0,0-5.353,0l-5.4,5.39a.978.978,0,0,0-.071.109A43.2,43.2,0,0,0,52.58,38.9c-.048-.007-.1-.008-.144-.015C52.178,21.359,41.785,7.261,28.987,7.261c-12.494,0-22.7,13.442-23.414,30.385a4.232,4.232,0,1,0,1.9.021C8.044,21.814,17.451,9.2,28.987,9.2c11.769,0,21.332,13.155,21.531,29.481A44.021,44.021,0,0,0,35.88,40.01h0L16.86,42.15a1,1,0,0,0,0,1.99L35.08,46.2v3.527L19.83,51.77a1,1,0,0,0,0,1.98l15.25,2.043v3.59L24.37,61.39a1,1,0,0,0,0,1.97l10.71,2.006v3.686L27.41,71.02a1,1,0,0,0,0,1.94l7.67,1.968v3.2h-13.4L19.71,70.46a1,1,0,0,0-1.93,0l-1.968,7.67H10.721L8.67,61.6a1,1,0,0,0-1.99,0L4.53,79.01c0,.006,0,.011,0,.017a.924.924,0,0,0-.021.1A38.856,38.856,0,0,0,15.98,106.8a44.134,44.134,0,0,0,58.155,3.662.972.972,0,0,0,.068.105l5.587,5.587a3.746,3.746,0,0,0,5.327,0l17.428-17.429a3.745,3.745,0,0,0,0-5.325l-5.428-5.429.838-.834a.965.965,0,0,0,.1.112l20.612,15.3A3.176,3.176,0,0,0,123.73,100V58.17A3.17,3.17,0,0,0,122,55.34ZM8.97,86.57a3.081,3.081,0,0,1,5.65-2.46,3.092,3.092,0,0,1-1.6,4.05,2.945,2.945,0,0,1-1.22.26A3.089,3.089,0,0,1,8.97,86.57Zm7.68,10.51a4.1,4.1,0,0,1-1.67.35,4.17,4.17,0,0,1-1.67-7.99,4.174,4.174,0,0,1,5.49,2.15A4.178,4.178,0,0,1,16.65,97.08Zm2.58-9.19a2.32,2.32,0,0,1-.89.18,2.221,2.221,0,0,1-2.07-3.04,2.193,2.193,0,0,1,1.18-1.23,2.234,2.234,0,0,1,2.93,1.15,2.16,2.16,0,0,1,.19.89A2.24,2.24,0,0,1,19.23,87.89Zm29.8-27.47a4,4,0,1,1,4-4A4.005,4.005,0,0,1,49.03,60.42ZM75.02,81.38a2.87,2.87,0,0,1-3.87,2.7L57.66,79.09a4.143,4.143,0,0,1-2.69-3.87V73.04a4.13,4.13,0,0,1,2.69-3.86l13.49-4.99a2.876,2.876,0,0,1,3.87,2.7Z"/></svg>